<svg width="123" height="123" viewBox="0 0 123 123" fill="none" xmlns="http://www.w3.org/2000/svg">
<path d="M33.8219 50.2909C37.9589 57.7329 42.72 64.8949 48.896 71.4239C55.1 77.9839 62.782 83.9619 72.771 89.0299L72.781 89.0349L72.783 89.0299C73.511 89.4009 74.204 89.3919 74.855 89.1479C75.799 88.7949 76.782 88.0109 77.738 87.0619C78.467 86.3359 79.381 85.1379 80.369 83.8389C84.215 78.7849 88.97 72.5379 95.683 75.6459C95.825 75.7109 95.959 75.7869 96.085 75.8719L118.458 88.7239C118.538 88.7699 118.615 88.8189 118.688 88.8709C121.654 90.9069 122.865 94.0429 122.878 97.5539C122.892 101.175 121.549 105.228 119.604 108.655C117.039 113.172 113.217 116.157 108.843 118.18C104.673 120.108 100.045 121.134 95.576 121.788C88.587 122.813 81.998 122.162 75.288 120.096C68.738 118.079 62.112 114.711 54.888 110.236L54.3619 109.91C51.0359 107.85 47.456 105.634 43.9729 103.006C31.108 93.2959 18.007 79.2829 9.51195 63.9039C2.36095 50.9579 -1.55205 36.9949 0.580952 23.6809C1.74995 16.3749 4.90095 9.74294 10.333 5.34994C15.095 1.49694 21.521 -0.590059 29.781 0.146941C30.754 0.230941 31.5739 0.785941 32.0359 1.56594L32.042 1.56294L46.366 25.8329C48.476 28.5509 48.71 31.2479 47.569 33.9289C46.626 36.1469 44.6769 38.1799 42.0929 40.0969C41.3069 40.7469 40.3849 41.4219 39.4339 42.1179C36.2359 44.4589 32.5779 47.1359 33.8219 50.2909Z" fill="white"/>
</svg>
