<svg xmlns="http://www.w3.org/2000/svg" width="24" height="24" xmlns:v="https://vecta.io/nano"><path stroke="null" d="M6.64 9.905c.799 1.456 1.719 2.856 2.912 4.133 1.198 1.283 2.682 2.452 4.611 3.444l.002.001v-.001a.47.47 0 0 0 .4.023c.182-.069.372-.222.557-.408.141-.142.317-.376.508-.63.743-.989 1.661-2.21 2.958-1.602a.54.54 0 0 1 .078.044l4.321 2.514.044.029c.573.398.807 1.012.809 1.698.003.708-.257 1.501-.632 2.171-.495.883-1.234 1.467-2.078 1.863-.805.377-1.699.578-2.563.706-1.35.2-2.623.073-3.919-.331-1.265-.395-2.545-1.053-3.94-1.929l-.102-.064-2.007-1.35c-2.485-1.899-5.015-4.64-6.656-7.648C.563 10.035-.192 7.304.22 4.7c.226-1.429.834-2.726 1.884-3.585C3.023.361 4.264-.047 5.86.097a.56.56 0 0 1 .436.278l.001-.001 2.767 4.747c.408.532.453 1.059.232 1.584-.182.434-.559.831-1.058 1.206a11.37 11.37 0 0 1-.514.395c-.618.458-1.324.981-1.084 1.599zm2.095 4.915c-1.276-1.366-2.247-2.844-3.086-4.373-.015-.024-.028-.049-.039-.076-.613-1.459.487-2.274 1.447-2.985a9.77 9.77 0 0 0 .464-.358v.001a.47.47 0 0 1 .026-.021c.356-.265.612-.518.71-.75.056-.133.035-.279-.09-.443a.58.58 0 0 1-.059-.083L5.476 1.213c-1.134-.047-2.012.258-2.662.791-.819.671-1.299 1.713-1.482 2.875-.368 2.326.331 4.81 1.602 7.139 1.56 2.86 3.974 5.472 6.348 7.286.653.499 1.309.91 1.918 1.292l.102.064c1.317.826 2.514 1.445 3.68 1.808 1.135.354 2.247.465 3.424.291.774-.115 1.567-.29 2.254-.612.647-.303 1.207-.74 1.571-1.389.289-.516.489-1.106.487-1.608-.001-.319-.091-.592-.31-.752l-4.298-2.499c-.475-.211-1.087.603-1.582 1.262-.213.284-.41.546-.61.747-.285.287-.602.533-.958.667-.413.156-.849.163-1.305-.072h0c-2.05-1.053-3.634-2.303-4.919-3.679z" vector-effect="non-scaling-stroke"/></svg>