<?xml version="1.0" standalone="no"?>
<!DOCTYPE svg PUBLIC "-//W3C//DTD SVG 20010904//EN"
 "http://www.w3.org/TR/2001/REC-SVG-20010904/DTD/svg10.dtd">
<svg version="1.0" xmlns="http://www.w3.org/2000/svg"
 width="317.000000pt" height="317.000000pt" viewBox="0 0 317.000000 317.000000"
 preserveAspectRatio="xMidYMid meet">
<metadata>
Created by potrace 1.14, written by Peter Selinger 2001-2017
</metadata>
<g transform="translate(0.000000,317.000000) scale(0.100000,-0.100000)"
fill="#000000" stroke="none">
<path d="M1186 1600 c1 -190 2 -347 3 -350 1 -7 1141 -7 1142 0 0 3 2 14 4 26
3 11 6 44 8 72 l4 51 -120 62 c-130 67 -174 80 -174 51 0 -9 -1 -36 -2 -60
l-1 -43 -287 3 -288 3 0 214 0 214 -116 47 c-64 26 -129 49 -145 52 l-29 4 1
-346z"/>
<path d="M1688 1942 c-230 -2 -237 -3 -243 -23 -9 -27 -9 -26 109 -87 l99 -52
471 -5 c478 -5 515 -8 542 -44 17 -21 8 -35 -32 -54 -30 -15 -75 -17 -333 -17
l-299 0 -4 -24 c-4 -22 21 -36 371 -213 l376 -190 130 3 c72 2 164 3 206 4 73
0 77 1 81 24 4 22 -12 31 -213 132 -153 76 -213 111 -201 116 9 4 43 14 76 24
118 35 206 118 206 195 0 52 -55 116 -135 157 -106 53 -130 56 -565 56 -223 1
-512 0 -642 -2z"/>
<path d="M263 1928 c-103 -17 -214 -98 -233 -169 -16 -60 11 -111 88 -167 82
-58 120 -65 395 -67 231 -2 250 -3 275 -22 47 -35 40 -63 -25 -97 -28 -14 -79
-16 -393 -16 l-360 0 -1 -40 c-1 -22 -2 -52 -3 -67 l-1 -28 450 0 450 0 55 26
c103 48 149 103 154 182 5 84 -58 152 -176 188 -51 16 -93 19 -276 19 -120 0
-234 5 -254 10 -73 21 -90 68 -35 97 29 15 71 17 399 17 l367 1 6 24 c3 13 5
24 3 26 -2 1 -41 22 -88 46 l-85 44 -336 0 c-184 0 -354 -3 -376 -7z"/>
</g>
</svg>
